<?xml version="1.0" standalone="no"?>
<!DOCTYPE svg PUBLIC "-//W3C//DTD SVG 20010904//EN"
 "http://www.w3.org/TR/2001/REC-SVG-20010904/DTD/svg10.dtd">
<svg version="1.0" xmlns="http://www.w3.org/2000/svg"
 width="260.000000pt" height="260.000000pt" viewBox="0 0 260.000000 260.000000"
 preserveAspectRatio="xMidYMid meet">
<metadata>
Created by potrace 1.11, written by Peter Selinger 2001-2013
</metadata>
<g transform="translate(0.000000,260.000000) scale(0.100000,-0.100000)"
fill="#000000" stroke="none">
<path d="M1145 2180 c-82 -26 -222 -71 -311 -99 -88 -28 -207 -66 -265 -85
-57 -18 -170 -55 -251 -80 l-148 -47 0 -490 c0 -269 1 -489 3 -489 1 0 49 -16
107 -36 58 -20 233 -80 390 -134 157 -54 365 -126 463 -160 l179 -61 66 21
c37 12 78 26 92 31 l25 9 -3 489 -3 488 28 11 c52 19 126 42 129 39 2 -2 4
-101 5 -220 1 -119 4 -217 9 -217 4 0 21 30 39 68 17 37 48 99 69 137 21 39
60 111 87 160 99 183 84 166 166 191 41 12 82 25 92 29 9 4 17 4 17 0 0 -6
-51 -99 -85 -157 -13 -21 -34 -58 -75 -133 -18 -33 -44 -77 -57 -97 -13 -21
-23 -42 -23 -48 0 -10 281 -437 319 -486 l17 -21 107 34 107 34 -2 491 -3 491
-140 47 c-77 26 -147 50 -155 53 -18 7 -207 72 -485 168 -110 37 -233 80 -273
94 -41 14 -77 25 -80 24 -4 0 -74 -22 -157 -49z"/>
<path d="M1756 1105 c-9 -13 -16 -26 -16 -29 0 -2 -20 -37 -45 -77 l-45 -73 2
-156 c2 -95 7 -155 13 -155 23 1 365 114 365 121 0 2 -58 91 -129 199 l-129
195 -16 -25z"/>
</g>
</svg>
