<svg xmlns="http://www.w3.org/2000/svg" width="140" height="115" viewBox="0 0 140 115">
  <path fill="#FFF" fill-rule="evenodd" d="M140,0 L140,115 L0,115 L0,0 L140,0 Z M69.7438795,6.00208144 C69.5998117,5.98612126 69.4557439,6.06592213 69.3356874,6.10582257 C58.3145009,9.9602048 46.9571563,13.1602199 35.6638418,16.8869207 C24.4665725,20.5896813 13.1492467,24.1408202 2,27.77176 L2,86.4812632 L2,86.4812632 C22.8978343,93.6154614 44.9402072,101.284325 66.1421846,108.554185 C67.4467985,109.00107 69.519774,110.030501 70.4642185,109.999307 C71.1605461,109.974641 72.3050847,109.447955 73.1374765,109.176632 C75.9067797,108.306802 78.7000942,107.261411 81.277307,106.511283 C81.3573446,86.7206658 81.1092279,67.2572326 81.173258,47.4825759 C84.3427495,46.4691048 87.4962335,45.4316934 90.7377589,44.4980232 C90.6817326,53.6671437 90.9138418,62.5330208 90.8418079,71.7021413 C91.4661017,71.2871767 91.7702448,70.4811879 92.0743879,69.8587411 C96.6125235,60.5060786 101.318738,51.8636439 106.289077,42.8621053 C106.857345,41.8246939 107.889831,39.3748071 108.658192,38.8561014 C109.298493,38.4092165 110.52307,38.3054754 111.435499,38.0341524 C114.380885,37.1324025 116.958098,36.1668119 119.887476,35.3688032 C114.861111,44.3304414 109.746704,53.1883384 104.736347,62.1579567 C109.858757,69.6991393 114.861111,77.4398241 119.887476,84.9411063 C121.560264,87.462814 123.217043,90.0723026 125.12194,92.4344084 C129.411959,91.0618334 133.62194,89.6094575 138,88.3246634 L138,29.4076779 L138,29.4076779 C118.358757,22.8799664 98.0852166,15.4744452 78.395951,8.882893 C75.4745763,7.90932233 72.4891714,6.47290659 69.7438795,6.00208144 Z M97.9571563,72.1171058 C96.3884181,74.7904351 94.3394539,78.3495541 92.5946328,81.350067 C91.970339,82.4353589 91.0258945,83.5765114 90.8418079,84.4303807 C90.6783977,85.2450147 90.7056327,86.1818437 90.7566984,87.1331551 L90.8024144,87.9495993 C90.8242997,88.3570825 90.8418079,88.7615732 90.8418079,89.1545925 C90.8418079,94.038406 90.7537665,98.7306974 90.9538606,103.415009 C98.5094162,100.965122 106.048964,98.4992749 113.708569,96.137169 C108.506121,88.0852608 103.335687,79.985472 97.9571563,72.1171058 Z"/>
</svg>
